<svg width="193" height="78" viewBox="0 0 193 78" fill="none" xmlns="http://www.w3.org/2000/svg">
<path d="M46.2983 28V-1.90735e-06H48.7383L61.5383 21.84H60.2583L72.9383 -1.90735e-06H75.3783V28H72.5383V4.44H73.2183L61.5383 24.44H60.1383L48.3783 4.44H49.1383V28H46.2983ZM97.0614 28V23.36L96.9414 22.6V14.84C96.9414 13.0533 96.4347 11.68 95.4214 10.72C94.4347 9.76 92.9547 9.28 90.9814 9.28C89.6214 9.28 88.3281 9.50667 87.1014 9.96C85.8747 10.4133 84.8347 11.0133 83.9814 11.76L82.7014 9.64C83.7681 8.73333 85.0481 8.04 86.5414 7.56C88.0347 7.05333 89.6081 6.8 91.2614 6.8C93.9814 6.8 96.0747 7.48 97.5414 8.84C99.0347 10.1733 99.7814 12.2133 99.7814 14.96V28H97.0614ZM89.8214 28.2C88.2481 28.2 86.8747 27.9467 85.7014 27.44C84.5547 26.9067 83.6747 26.1867 83.0614 25.28C82.4481 24.3467 82.1414 23.28 82.1414 22.08C82.1414 20.9867 82.3947 20 82.9014 19.12C83.4347 18.2133 84.2881 17.4933 85.4614 16.96C86.6614 16.4 88.2614 16.12 90.2614 16.12H97.5014V18.24H90.3414C88.3147 18.24 86.9014 18.6 86.1014 19.32C85.3281 20.04 84.9414 20.9333 84.9414 22C84.9414 23.2 85.4081 24.16 86.3414 24.88C87.2747 25.6 88.5814 25.96 90.2614 25.96C91.8614 25.96 93.2347 25.6 94.3814 24.88C95.5547 24.1333 96.4081 23.0667 96.9414 21.68L97.5814 23.64C97.0481 25.0267 96.1147 26.1333 94.7814 26.96C93.4747 27.7867 91.8214 28.2 89.8214 28.2ZM116.215 28.2C114.135 28.2 112.268 27.7467 110.615 26.84C108.988 25.9067 107.708 24.64 106.775 23.04C105.842 21.4133 105.375 19.56 105.375 17.48C105.375 15.3733 105.842 13.52 106.775 11.92C107.708 10.32 108.988 9.06667 110.615 8.16C112.268 7.25333 114.135 6.8 116.215 6.8C118.002 6.8 119.615 7.14667 121.055 7.84C122.495 8.53333 123.628 9.57333 124.455 10.96L122.335 12.4C121.615 11.3333 120.722 10.5467 119.655 10.04C118.588 9.53333 117.428 9.28 116.175 9.28C114.682 9.28 113.335 9.62667 112.135 10.32C110.935 10.9867 109.988 11.9333 109.295 13.16C108.602 14.3867 108.255 15.8267 108.255 17.48C108.255 19.1333 108.602 20.5733 109.295 21.8C109.988 23.0267 110.935 23.9867 112.135 24.68C113.335 25.3467 114.682 25.68 116.175 25.68C117.428 25.68 118.588 25.4267 119.655 24.92C120.722 24.4133 121.615 23.64 122.335 22.6L124.455 24.04C123.628 25.4 122.495 26.44 121.055 27.16C119.615 27.8533 118.002 28.2 116.215 28.2ZM138.403 28.2C136.323 28.2 134.456 27.7467 132.803 26.84C131.176 25.9067 129.896 24.64 128.963 23.04C128.029 21.4133 127.563 19.56 127.563 17.48C127.563 15.3733 128.029 13.52 128.963 11.92C129.896 10.32 131.176 9.06667 132.803 8.16C134.456 7.25333 136.323 6.8 138.403 6.8C140.189 6.8 141.803 7.14667 143.243 7.84C144.683 8.53333 145.816 9.57333 146.643 10.96L144.523 12.4C143.803 11.3333 142.909 10.5467 141.843 10.04C140.776 9.53333 139.616 9.28 138.363 9.28C136.869 9.28 135.523 9.62667 134.323 10.32C133.123 10.9867 132.176 11.9333 131.483 13.16C130.789 14.3867 130.443 15.8267 130.443 17.48C130.443 19.1333 130.789 20.5733 131.483 21.8C132.176 23.0267 133.123 23.9867 134.323 24.68C135.523 25.3467 136.869 25.68 138.363 25.68C139.616 25.68 140.776 25.4267 141.843 24.92C142.909 24.4133 143.803 23.64 144.523 22.6L146.643 24.04C145.816 25.4 144.683 26.44 143.243 27.16C141.803 27.8533 140.189 28.2 138.403 28.2Z" fill="#E2342D"/>
<path d="M3.43047 61.52H18.2305V64.04H3.43047V61.52ZM3.75047 74.44H20.5905V77H0.790469V49H19.9905V51.56H3.75047V74.44ZM32.2758 77.2C30.5424 77.2 28.9024 76.96 27.3558 76.48C25.8091 75.9733 24.5958 75.3467 23.7158 74.6L24.9958 72.36C25.8491 73 26.9424 73.56 28.2758 74.04C29.6091 74.4933 31.0091 74.72 32.4758 74.72C34.4758 74.72 35.9158 74.4133 36.7958 73.8C37.6758 73.16 38.1158 72.32 38.1158 71.28C38.1158 70.5067 37.8624 69.9067 37.3558 69.48C36.8758 69.0267 36.2358 68.6933 35.4358 68.48C34.6358 68.24 33.7424 68.04 32.7558 67.88C31.7691 67.72 30.7824 67.5333 29.7958 67.32C28.8358 67.1067 27.9558 66.8 27.1558 66.4C26.3558 65.9733 25.7024 65.4 25.1958 64.68C24.7158 63.96 24.4758 63 24.4758 61.8C24.4758 60.6533 24.7958 59.6267 25.4358 58.72C26.0758 57.8133 27.0091 57.1067 28.2358 56.6C29.4891 56.0667 31.0091 55.8 32.7958 55.8C34.1558 55.8 35.5158 55.9867 36.8758 56.36C38.2358 56.7067 39.3558 57.1733 40.2358 57.76L38.9958 60.04C38.0624 59.4 37.0624 58.9467 35.9958 58.68C34.9291 58.3867 33.8624 58.24 32.7958 58.24C30.9024 58.24 29.5024 58.5733 28.5958 59.24C27.7158 59.88 27.2758 60.7067 27.2758 61.72C27.2758 62.52 27.5158 63.1467 27.9958 63.6C28.5024 64.0533 29.1558 64.4133 29.9558 64.68C30.7824 64.92 31.6758 65.12 32.6358 65.28C33.6224 65.44 34.5958 65.64 35.5558 65.88C36.5424 66.0933 37.4358 66.4 38.2358 66.8C39.0624 67.1733 39.7158 67.72 40.1958 68.44C40.7024 69.1333 40.9558 70.0533 40.9558 71.2C40.9558 72.4267 40.6091 73.4933 39.9158 74.4C39.2491 75.28 38.2624 75.9733 36.9558 76.48C35.6758 76.96 34.1158 77.2 32.2758 77.2ZM51.807 77.2C50.0737 77.2 48.4337 76.96 46.887 76.48C45.3404 75.9733 44.127 75.3467 43.247 74.6L44.527 72.36C45.3804 73 46.4737 73.56 47.807 74.04C49.1404 74.4933 50.5404 74.72 52.007 74.72C54.007 74.72 55.447 74.4133 56.327 73.8C57.207 73.16 57.647 72.32 57.647 71.28C57.647 70.5067 57.3937 69.9067 56.887 69.48C56.407 69.0267 55.767 68.6933 54.967 68.48C54.167 68.24 53.2737 68.04 52.287 67.88C51.3004 67.72 50.3137 67.5333 49.327 67.32C48.367 67.1067 47.487 66.8 46.687 66.4C45.887 65.9733 45.2337 65.4 44.727 64.68C44.247 63.96 44.007 63 44.007 61.8C44.007 60.6533 44.327 59.6267 44.967 58.72C45.607 57.8133 46.5404 57.1067 47.767 56.6C49.0204 56.0667 50.5404 55.8 52.327 55.8C53.687 55.8 55.047 55.9867 56.407 56.36C57.767 56.7067 58.887 57.1733 59.767 57.76L58.527 60.04C57.5937 59.4 56.5937 58.9467 55.527 58.68C54.4604 58.3867 53.3937 58.24 52.327 58.24C50.4337 58.24 49.0337 58.5733 48.127 59.24C47.247 59.88 46.807 60.7067 46.807 61.72C46.807 62.52 47.047 63.1467 47.527 63.6C48.0337 64.0533 48.687 64.4133 49.487 64.68C50.3137 64.92 51.207 65.12 52.167 65.28C53.1537 65.44 54.127 65.64 55.087 65.88C56.0737 66.0933 56.967 66.4 57.767 66.8C58.5937 67.1733 59.247 67.72 59.727 68.44C60.2337 69.1333 60.487 70.0533 60.487 71.2C60.487 72.4267 60.1404 73.4933 59.447 74.4C58.7804 75.28 57.7937 75.9733 56.487 76.48C55.207 76.96 53.647 77.2 51.807 77.2ZM74.6183 77.2C72.4316 77.2 70.5116 76.7467 68.8583 75.84C67.2049 74.9067 65.9116 73.64 64.9783 72.04C64.0449 70.4133 63.5783 68.56 63.5783 66.48C63.5783 64.4 64.0183 62.56 64.8983 60.96C65.8049 59.36 67.0316 58.1067 68.5783 57.2C70.1516 56.2667 71.9116 55.8 73.8583 55.8C75.8316 55.8 77.5783 56.2533 79.0983 57.16C80.6449 58.04 81.8583 59.2933 82.7383 60.92C83.6183 62.52 84.0583 64.3733 84.0583 66.48C84.0583 66.6133 84.0449 66.76 84.0183 66.92C84.0183 67.0533 84.0183 67.2 84.0183 67.36H65.7383V65.24H82.4983L81.3783 66.08C81.3783 64.56 81.0449 63.2133 80.3783 62.04C79.7383 60.84 78.8583 59.9067 77.7383 59.24C76.6183 58.5733 75.3249 58.24 73.8583 58.24C72.4183 58.24 71.1249 58.5733 69.9783 59.24C68.8316 59.9067 67.9383 60.84 67.2983 62.04C66.6583 63.24 66.3383 64.6133 66.3383 66.16V66.6C66.3383 68.2 66.6849 69.6133 67.3783 70.84C68.0983 72.04 69.0849 72.9867 70.3383 73.68C71.6183 74.3467 73.0716 74.68 74.6983 74.68C75.9783 74.68 77.1649 74.4533 78.2583 74C79.3783 73.5467 80.3383 72.8533 81.1383 71.92L82.7383 73.76C81.8049 74.88 80.6316 75.7333 79.2183 76.32C77.8316 76.9067 76.2983 77.2 74.6183 77.2ZM100.559 55.8C102.266 55.8 103.759 56.1333 105.039 56.8C106.346 57.44 107.359 58.4267 108.079 59.76C108.826 61.0933 109.199 62.7733 109.199 64.8V77H106.359V65.08C106.359 62.8667 105.799 61.2 104.679 60.08C103.586 58.9333 102.039 58.36 100.039 58.36C98.5456 58.36 97.2389 58.6667 96.1189 59.28C95.0256 59.8667 94.1722 60.7333 93.5589 61.88C92.9722 63 92.6789 64.36 92.6789 65.96V77H89.8389V56H92.5589V61.76L92.1189 60.68C92.7856 59.16 93.8522 57.9733 95.3189 57.12C96.7856 56.24 98.5322 55.8 100.559 55.8ZM123.51 77.2C121.537 77.2 120.017 76.6667 118.95 75.6C117.883 74.5333 117.35 73.0267 117.35 71.08V51.36H120.19V70.92C120.19 72.1467 120.497 73.0933 121.11 73.76C121.75 74.4267 122.657 74.76 123.83 74.76C125.083 74.76 126.123 74.4 126.95 73.68L127.95 75.72C127.39 76.2267 126.71 76.6 125.91 76.84C125.137 77.08 124.337 77.2 123.51 77.2ZM113.59 58.36V56H126.59V58.36H113.59ZM133.12 77V56H135.96V77H133.12ZM134.56 51.36C133.973 51.36 133.48 51.16 133.08 50.76C132.68 50.36 132.48 49.88 132.48 49.32C132.48 48.76 132.68 48.2933 133.08 47.92C133.48 47.52 133.973 47.32 134.56 47.32C135.147 47.32 135.64 47.5067 136.04 47.88C136.44 48.2533 136.64 48.72 136.64 49.28C136.64 49.8667 136.44 50.36 136.04 50.76C135.667 51.16 135.173 51.36 134.56 51.36ZM157.022 77V72.36L156.902 71.6V63.84C156.902 62.0533 156.396 60.68 155.382 59.72C154.396 58.76 152.916 58.28 150.942 58.28C149.582 58.28 148.289 58.5067 147.062 58.96C145.836 59.4133 144.796 60.0133 143.942 60.76L142.662 58.64C143.729 57.7333 145.009 57.04 146.502 56.56C147.996 56.0533 149.569 55.8 151.222 55.8C153.942 55.8 156.036 56.48 157.502 57.84C158.996 59.1733 159.742 61.2133 159.742 63.96V77H157.022ZM149.782 77.2C148.209 77.2 146.836 76.9467 145.662 76.44C144.516 75.9067 143.636 75.1867 143.022 74.28C142.409 73.3467 142.102 72.28 142.102 71.08C142.102 69.9867 142.356 69 142.862 68.12C143.396 67.2133 144.249 66.4933 145.422 65.96C146.622 65.4 148.222 65.12 150.222 65.12H157.462V67.24H150.302C148.276 67.24 146.862 67.6 146.062 68.32C145.289 69.04 144.902 69.9333 144.902 71C144.902 72.2 145.369 73.16 146.302 73.88C147.236 74.6 148.542 74.96 150.222 74.96C151.822 74.96 153.196 74.6 154.342 73.88C155.516 73.1333 156.369 72.0667 156.902 70.68L157.542 72.64C157.009 74.0267 156.076 75.1333 154.742 75.96C153.436 76.7867 151.782 77.2 149.782 77.2ZM167.456 77V47.32H170.296V77H167.456ZM183.838 77.2C182.105 77.2 180.465 76.96 178.918 76.48C177.372 75.9733 176.158 75.3467 175.278 74.6L176.558 72.36C177.412 73 178.505 73.56 179.838 74.04C181.172 74.4933 182.572 74.72 184.038 74.72C186.038 74.72 187.478 74.4133 188.358 73.8C189.238 73.16 189.678 72.32 189.678 71.28C189.678 70.5067 189.425 69.9067 188.918 69.48C188.438 69.0267 187.798 68.6933 186.998 68.48C186.198 68.24 185.305 68.04 184.318 67.88C183.332 67.72 182.345 67.5333 181.358 67.32C180.398 67.1067 179.518 66.8 178.718 66.4C177.918 65.9733 177.265 65.4 176.758 64.68C176.278 63.96 176.038 63 176.038 61.8C176.038 60.6533 176.358 59.6267 176.998 58.72C177.638 57.8133 178.572 57.1067 179.798 56.6C181.052 56.0667 182.572 55.8 184.358 55.8C185.718 55.8 187.078 55.9867 188.438 56.36C189.798 56.7067 190.918 57.1733 191.798 57.76L190.558 60.04C189.625 59.4 188.625 58.9467 187.558 58.68C186.492 58.3867 185.425 58.24 184.358 58.24C182.465 58.24 181.065 58.5733 180.158 59.24C179.278 59.88 178.838 60.7067 178.838 61.72C178.838 62.52 179.078 63.1467 179.558 63.6C180.065 64.0533 180.718 64.4133 181.518 64.68C182.345 64.92 183.238 65.12 184.198 65.28C185.185 65.44 186.158 65.64 187.118 65.88C188.105 66.0933 188.998 66.4 189.798 66.8C190.625 67.1733 191.278 67.72 191.758 68.44C192.265 69.1333 192.518 70.0533 192.518 71.2C192.518 72.4267 192.172 73.4933 191.478 74.4C190.812 75.28 189.825 75.9733 188.518 76.48C187.238 76.96 185.678 77.2 183.838 77.2Z" fill="#004197"/>
</svg>
