<svg width="260" height="105" viewBox="0 0 260 105" fill="none" xmlns="http://www.w3.org/2000/svg">
<path d="M0.740999 37.902V0.101975H4.035L21.315 29.586H19.587L36.705 0.101975H39.999V37.902H36.165V6.09598H37.083L21.315 33.096H19.425L3.549 6.09598H4.575V37.902H0.740999ZM69.2712 37.902V31.638L69.1092 30.612V20.136C69.1092 17.724 68.4252 15.87 67.0572 14.574C65.7252 13.278 63.7272 12.63 61.0632 12.63C59.2272 12.63 57.4812 12.936 55.8252 13.548C54.1692 14.16 52.7652 14.97 51.6132 15.978L49.8852 13.116C51.3252 11.892 53.0532 10.956 55.0692 10.308C57.0852 9.62398 59.2092 9.28198 61.4412 9.28198C65.1132 9.28198 67.9392 10.2 69.9192 12.036C71.9352 13.836 72.9432 16.59 72.9432 20.298V37.902H69.2712ZM59.4972 38.172C57.3732 38.172 55.5192 37.83 53.9352 37.146C52.3872 36.426 51.1992 35.454 50.3712 34.23C49.5432 32.97 49.1292 31.53 49.1292 29.91C49.1292 28.434 49.4712 27.102 50.1552 25.914C50.8752 24.69 52.0272 23.718 53.6112 22.998C55.2312 22.242 57.3912 21.864 60.0912 21.864H69.8652V24.726H60.1992C57.4632 24.726 55.5552 25.212 54.4752 26.184C53.4312 27.156 52.9092 28.362 52.9092 29.802C52.9092 31.422 53.5392 32.718 54.7992 33.69C56.0592 34.662 57.8232 35.148 60.0912 35.148C62.2512 35.148 64.1052 34.662 65.6532 33.69C67.2372 32.682 68.3892 31.242 69.1092 29.37L69.9732 32.016C69.2532 33.888 67.9932 35.382 66.1932 36.498C64.4292 37.614 62.1972 38.172 59.4972 38.172ZM95.1288 38.172C92.3208 38.172 89.8008 37.56 87.5688 36.336C85.3728 35.076 83.6448 33.366 82.3848 31.206C81.1248 29.01 80.4948 26.508 80.4948 23.7C80.4948 20.856 81.1248 18.354 82.3848 16.194C83.6448 14.034 85.3728 12.342 87.5688 11.118C89.8008 9.89398 92.3208 9.28198 95.1288 9.28198C97.5408 9.28198 99.7188 9.74998 101.663 10.686C103.607 11.622 105.137 13.026 106.253 14.898L103.391 16.842C102.419 15.402 101.213 14.34 99.7728 13.656C98.3328 12.972 96.7668 12.63 95.0748 12.63C93.0588 12.63 91.2408 13.098 89.6208 14.034C88.0008 14.934 86.7228 16.212 85.7868 17.868C84.8508 19.524 84.3828 21.468 84.3828 23.7C84.3828 25.932 84.8508 27.876 85.7868 29.532C86.7228 31.188 88.0008 32.484 89.6208 33.42C91.2408 34.32 93.0588 34.77 95.0748 34.77C96.7668 34.77 98.3328 34.428 99.7728 33.744C101.213 33.06 102.419 32.016 103.391 30.612L106.253 32.556C105.137 34.392 103.607 35.796 101.663 36.768C99.7188 37.704 97.5408 38.172 95.1288 38.172ZM125.082 38.172C122.274 38.172 119.754 37.56 117.522 36.336C115.326 35.076 113.598 33.366 112.338 31.206C111.078 29.01 110.448 26.508 110.448 23.7C110.448 20.856 111.078 18.354 112.338 16.194C113.598 14.034 115.326 12.342 117.522 11.118C119.754 9.89398 122.274 9.28198 125.082 9.28198C127.494 9.28198 129.672 9.74998 131.616 10.686C133.56 11.622 135.09 13.026 136.206 14.898L133.344 16.842C132.372 15.402 131.166 14.34 129.726 13.656C128.286 12.972 126.72 12.63 125.028 12.63C123.012 12.63 121.194 13.098 119.574 14.034C117.954 14.934 116.676 16.212 115.74 17.868C114.804 19.524 114.336 21.468 114.336 23.7C114.336 25.932 114.804 27.876 115.74 29.532C116.676 31.188 117.954 32.484 119.574 33.42C121.194 34.32 123.012 34.77 125.028 34.77C126.72 34.77 128.286 34.428 129.726 33.744C131.166 33.06 132.372 32.016 133.344 30.612L136.206 32.556C135.09 34.392 133.56 35.796 131.616 36.768C129.672 37.704 127.494 38.172 125.082 38.172Z" fill="#E2342D"/>
<path d="M4.305 83.004H24.285V86.406H4.305V83.004ZM4.737 100.446H27.471V103.902H0.740999V66.102H26.661V69.558H4.737V100.446ZM43.2462 104.172C40.9062 104.172 38.6922 103.848 36.6042 103.2C34.5162 102.516 32.8782 101.67 31.6902 100.662L33.4182 97.638C34.5702 98.502 36.0462 99.258 37.8462 99.906C39.6462 100.518 41.5362 100.824 43.5162 100.824C46.2162 100.824 48.1602 100.41 49.3482 99.582C50.5362 98.718 51.1302 97.584 51.1302 96.18C51.1302 95.136 50.7882 94.326 50.1042 93.75C49.4562 93.138 48.5922 92.688 47.5122 92.4C46.4322 92.076 45.2262 91.806 43.8942 91.59C42.5622 91.374 41.2302 91.122 39.8982 90.834C38.6022 90.546 37.4142 90.132 36.3342 89.592C35.2542 89.016 34.3722 88.242 33.6882 87.27C33.0402 86.298 32.7162 85.002 32.7162 83.382C32.7162 81.834 33.1482 80.448 34.0122 79.224C34.8762 78 36.1362 77.046 37.7922 76.362C39.4842 75.642 41.5362 75.282 43.9482 75.282C45.7842 75.282 47.6202 75.534 49.4562 76.038C51.2922 76.506 52.8042 77.136 53.9922 77.928L52.3182 81.006C51.0582 80.142 49.7082 79.53 48.2682 79.17C46.8282 78.774 45.3882 78.576 43.9482 78.576C41.3922 78.576 39.5022 79.026 38.2782 79.926C37.0902 80.79 36.4962 81.906 36.4962 83.274C36.4962 84.354 36.8202 85.2 37.4682 85.812C38.1522 86.424 39.0342 86.91 40.1142 87.27C41.2302 87.594 42.4362 87.864 43.7322 88.08C45.0642 88.296 46.3782 88.566 47.6742 88.89C49.0062 89.178 50.2122 89.592 51.2922 90.132C52.4082 90.636 53.2902 91.374 53.9382 92.346C54.6222 93.282 54.9642 94.524 54.9642 96.072C54.9642 97.728 54.4962 99.168 53.5602 100.392C52.6602 101.58 51.3282 102.516 49.5642 103.2C47.8362 103.848 45.7302 104.172 43.2462 104.172ZM69.6134 104.172C67.2734 104.172 65.0594 103.848 62.9714 103.2C60.8834 102.516 59.2454 101.67 58.0574 100.662L59.7854 97.638C60.9374 98.502 62.4134 99.258 64.2134 99.906C66.0134 100.518 67.9034 100.824 69.8834 100.824C72.5834 100.824 74.5274 100.41 75.7154 99.582C76.9034 98.718 77.4974 97.584 77.4974 96.18C77.4974 95.136 77.1554 94.326 76.4714 93.75C75.8234 93.138 74.9594 92.688 73.8794 92.4C72.7994 92.076 71.5934 91.806 70.2614 91.59C68.9294 91.374 67.5974 91.122 66.2654 90.834C64.9694 90.546 63.7814 90.132 62.7014 89.592C61.6214 89.016 60.7394 88.242 60.0554 87.27C59.4074 86.298 59.0834 85.002 59.0834 83.382C59.0834 81.834 59.5154 80.448 60.3794 79.224C61.2434 78 62.5034 77.046 64.1594 76.362C65.8514 75.642 67.9034 75.282 70.3154 75.282C72.1514 75.282 73.9874 75.534 75.8234 76.038C77.6594 76.506 79.1714 77.136 80.3594 77.928L78.6854 81.006C77.4254 80.142 76.0754 79.53 74.6354 79.17C73.1954 78.774 71.7554 78.576 70.3154 78.576C67.7594 78.576 65.8694 79.026 64.6454 79.926C63.4574 80.79 62.8634 81.906 62.8634 83.274C62.8634 84.354 63.1874 85.2 63.8354 85.812C64.5194 86.424 65.4014 86.91 66.4814 87.27C67.5974 87.594 68.8034 87.864 70.0994 88.08C71.4314 88.296 72.7454 88.566 74.0414 88.89C75.3734 89.178 76.5794 89.592 77.6594 90.132C78.7754 90.636 79.6574 91.374 80.3054 92.346C80.9894 93.282 81.3314 94.524 81.3314 96.072C81.3314 97.728 80.8634 99.168 79.9274 100.392C79.0274 101.58 77.6954 102.516 75.9314 103.2C74.2034 103.848 72.0974 104.172 69.6134 104.172ZM100.409 104.172C97.4565 104.172 94.8645 103.56 92.6325 102.336C90.4005 101.076 88.6545 99.366 87.3945 97.206C86.1345 95.01 85.5045 92.508 85.5045 89.7C85.5045 86.892 86.0985 84.408 87.2865 82.248C88.5105 80.088 90.1665 78.396 92.2545 77.172C94.3785 75.912 96.7545 75.282 99.3825 75.282C102.047 75.282 104.405 75.894 106.457 77.118C108.545 78.306 110.183 79.998 111.371 82.194C112.559 84.354 113.153 86.856 113.153 89.7C113.153 89.88 113.135 90.078 113.099 90.294C113.099 90.474 113.099 90.672 113.099 90.888H88.4205V88.026H111.047L109.535 89.16C109.535 87.108 109.085 85.29 108.185 83.706C107.321 82.086 106.133 80.826 104.621 79.926C103.109 79.026 101.363 78.576 99.3825 78.576C97.4385 78.576 95.6925 79.026 94.1445 79.926C92.5965 80.826 91.3905 82.086 90.5265 83.706C89.6625 85.326 89.2305 87.18 89.2305 89.268V89.862C89.2305 92.022 89.6985 93.93 90.6345 95.586C91.6065 97.206 92.9385 98.484 94.6305 99.42C96.3585 100.32 98.3205 100.77 100.517 100.77C102.245 100.77 103.847 100.464 105.323 99.852C106.835 99.24 108.131 98.304 109.211 97.044L111.371 99.528C110.111 101.04 108.527 102.192 106.619 102.984C104.747 103.776 102.677 104.172 100.409 104.172ZM135.428 75.282C137.732 75.282 139.748 75.732 141.476 76.632C143.24 77.496 144.608 78.828 145.58 80.628C146.588 82.428 147.092 84.696 147.092 87.432V103.902H143.258V87.81C143.258 84.822 142.502 82.572 140.99 81.06C139.514 79.512 137.426 78.738 134.726 78.738C132.71 78.738 130.946 79.152 129.434 79.98C127.958 80.772 126.806 81.942 125.978 83.49C125.186 85.002 124.79 86.838 124.79 88.998V103.902H120.956V75.552H124.628V83.328L124.034 81.87C124.934 79.818 126.374 78.216 128.354 77.064C130.334 75.876 132.692 75.282 135.428 75.282ZM166.413 104.172C163.749 104.172 161.697 103.452 160.257 102.012C158.817 100.572 158.097 98.538 158.097 95.91V69.288H161.931V95.694C161.931 97.35 162.345 98.628 163.173 99.528C164.037 100.428 165.261 100.878 166.845 100.878C168.537 100.878 169.941 100.392 171.057 99.42L172.407 102.174C171.651 102.858 170.733 103.362 169.653 103.686C168.609 104.01 167.529 104.172 166.413 104.172ZM153.021 78.738V75.552H170.571V78.738H153.021ZM179.386 103.902V75.552H183.22V103.902H179.386ZM181.33 69.288C180.538 69.288 179.872 69.018 179.332 68.478C178.792 67.938 178.522 67.29 178.522 66.534C178.522 65.778 178.792 65.148 179.332 64.644C179.872 64.104 180.538 63.834 181.33 63.834C182.122 63.834 182.788 64.086 183.328 64.59C183.868 65.094 184.138 65.724 184.138 66.48C184.138 67.272 183.868 67.938 183.328 68.478C182.824 69.018 182.158 69.288 181.33 69.288ZM211.654 103.902V97.638L211.492 96.612V86.136C211.492 83.724 210.808 81.87 209.44 80.574C208.108 79.278 206.11 78.63 203.446 78.63C201.61 78.63 199.864 78.936 198.208 79.548C196.552 80.16 195.148 80.97 193.996 81.978L192.268 79.116C193.708 77.892 195.436 76.956 197.452 76.308C199.468 75.624 201.592 75.282 203.824 75.282C207.496 75.282 210.322 76.2 212.302 78.036C214.318 79.836 215.326 82.59 215.326 86.298V103.902H211.654ZM201.88 104.172C199.756 104.172 197.902 103.83 196.318 103.146C194.77 102.426 193.582 101.454 192.754 100.23C191.926 98.97 191.512 97.53 191.512 95.91C191.512 94.434 191.854 93.102 192.538 91.914C193.258 90.69 194.41 89.718 195.994 88.998C197.614 88.242 199.774 87.864 202.474 87.864H212.248V90.726H202.582C199.846 90.726 197.938 91.212 196.858 92.184C195.814 93.156 195.292 94.362 195.292 95.802C195.292 97.422 195.922 98.718 197.182 99.69C198.442 100.662 200.206 101.148 202.474 101.148C204.634 101.148 206.488 100.662 208.036 99.69C209.62 98.682 210.772 97.242 211.492 95.37L212.356 98.016C211.636 99.888 210.376 101.382 208.576 102.498C206.812 103.614 204.58 104.172 201.88 104.172ZM225.74 103.902V63.834H229.574V103.902H225.74ZM247.856 104.172C245.516 104.172 243.302 103.848 241.214 103.2C239.126 102.516 237.488 101.67 236.3 100.662L238.028 97.638C239.18 98.502 240.656 99.258 242.456 99.906C244.256 100.518 246.146 100.824 248.126 100.824C250.826 100.824 252.77 100.41 253.958 99.582C255.146 98.718 255.74 97.584 255.74 96.18C255.74 95.136 255.398 94.326 254.714 93.75C254.066 93.138 253.202 92.688 252.122 92.4C251.042 92.076 249.836 91.806 248.504 91.59C247.172 91.374 245.84 91.122 244.508 90.834C243.212 90.546 242.024 90.132 240.944 89.592C239.864 89.016 238.982 88.242 238.298 87.27C237.65 86.298 237.326 85.002 237.326 83.382C237.326 81.834 237.758 80.448 238.622 79.224C239.486 78 240.746 77.046 242.402 76.362C244.094 75.642 246.146 75.282 248.558 75.282C250.394 75.282 252.23 75.534 254.066 76.038C255.902 76.506 257.414 77.136 258.602 77.928L256.928 81.006C255.668 80.142 254.318 79.53 252.878 79.17C251.438 78.774 249.998 78.576 248.558 78.576C246.002 78.576 244.112 79.026 242.888 79.926C241.7 80.79 241.106 81.906 241.106 83.274C241.106 84.354 241.43 85.2 242.078 85.812C242.762 86.424 243.644 86.91 244.724 87.27C245.84 87.594 247.046 87.864 248.342 88.08C249.674 88.296 250.988 88.566 252.284 88.89C253.616 89.178 254.822 89.592 255.902 90.132C257.018 90.636 257.9 91.374 258.548 92.346C259.232 93.282 259.574 94.524 259.574 96.072C259.574 97.728 259.106 99.168 258.17 100.392C257.27 101.58 255.938 102.516 254.174 103.2C252.446 103.848 250.34 104.172 247.856 104.172Z" fill="#004197"/>
</svg>
