<svg width="22" height="24" viewBox="0 0 22 24" fill="none" xmlns="http://www.w3.org/2000/svg">
<path d="M17.548 7.66299C17.548 5.91256 16.8526 4.23382 15.6149 2.99608C14.3771 1.75834 12.6984 1.06299 10.948 1.06299C9.19754 1.06299 7.51881 1.75834 6.28107 2.99608C5.04333 4.23382 4.34797 5.91256 4.34797 7.66299C4.34797 15.363 1.04797 17.563 1.04797 17.563H20.848C20.848 17.563 17.548 15.363 17.548 7.66299Z" stroke="black" stroke-width="1.5" stroke-linecap="round" stroke-linejoin="round"/>
<path d="M12.853 21.967C12.6597 22.3007 12.3821 22.5776 12.048 22.7701C11.7139 22.9627 11.3351 23.064 10.9495 23.064C10.5639 23.064 10.1851 22.9627 9.85104 22.7701C9.51696 22.5776 9.23935 22.3007 9.04602 21.967" stroke="black" stroke-width="1.5" stroke-linecap="round" stroke-linejoin="round"/>
</svg>
